<svg xmlns="http://www.w3.org/2000/svg" width="24" height="24" fill="currentColor" viewBox="0 0 24 24">
  <path d="M20 0H4C1.8 0 0 1.8 0 4v16c0 2.2 1.8 4 4 4h12l-.6-2.2 1.4 1.3 1.3 1.2L24 24V4c0-2.2-1.8-4-4-4zm-6.6 18.2s-.6-.7-1-1.3c2-.6 2.8-1.9 2.8-1.9-.6.4-1.1.7-1.6.9-.7.3-1.4.5-2.1.6-1.3.2-2.6.1-3.8-.1-.9-.2-1.8-.4-2.6-.8-.4-.2-.9-.5-1.3-.8-.1-.1-.2-.1-.3-.2-.1-.1-.2-.2-.2-.2s.8 1.3 2.9 1.9c-.4.6-1 1.3-1 1.3-3.2-.1-4.4-2.2-4.4-2.2 0-4.7 2.1-8.5 2.1-8.5 2.1-1.6 4.1-1.6 4.1-1.6l.1.1c-.1 0-1.3.1-2.5.7-1.2.6-1.8 1.5-1.8 1.5s.2-.1.5-.3c2.2-1 4.6-1 4.6-1s2.4 0 4.6 1c.3.2.5.3.5.3s-.6-1-1.8-1.5-2.5-.7-2.5-.7l.1-.1s2 0 4.1 1.6c0 0 2.1 3.8 2.1 8.5 0 0-1.2 2.1-4.4 2.2z"/>
</svg>
