<svg xmlns="http://www.w3.org/2000/svg" width="24" height="24" fill="currentColor" viewBox="0 0 24 24">
  <path d="M23.954 4.569c-.885.389-1.83.654-2.825.775 1.014-.611 1.794-1.574 2.163-2.723-.949.564-2.005.974-3.127 1.195-.897-.959-2.178-1.559-3.594-1.559-2.719 0-4.924 2.205-4.924 4.924 0 .39.045.765.127 1.124-4.094-.205-7.725-2.165-10.159-5.144-.424.729-.666 1.577-.666 2.475 0 1.708.869 3.215 2.188 4.096-.807-.026-1.566-.248-2.229-.616v.061c0 2.385 1.693 4.374 3.946 4.828-.413.111-.849.171-1.296.171-.317 0-.626-.03-.927-.086.627 1.956 2.444 3.379 4.6 3.419-1.68 1.318-3.809 2.105-6.102 2.105-.397 0-.789-.023-1.176-.069 2.179 1.397 4.768 2.212 7.557 2.212 9.054 0 14.004-7.496 14.004-13.986 0-.213-.005-.425-.014-.636.962-.689 1.797-1.56 2.457-2.548z"/>
</svg>
